<svg xmlns="http://www.w3.org/2000/svg" viewBox="0 0 1200 388" width="1200" height="388" role="img" aria-label="Instala ntfy, suscríbete a tu enlace y el próximo aviso llega a ese aparato"><rect width="1200" height="388" rx="28" fill="#0E1517"/><g transform="translate(0 -52)"><rect x="48" y="100" width="344" height="300" rx="18" fill="#172226" stroke="#26353A" stroke-width="2"/><text x="76" y="360" font-family="-apple-system, BlinkMacSystemFont, 'Segoe UI', Roboto, Helvetica, Arial, sans-serif" font-size="23" font-weight="700" fill="#E4ECEC" text-anchor="start">Instala ntfy</text><text x="76" y="386" font-family="-apple-system, BlinkMacSystemFont, 'Segoe UI', Roboto, Helvetica, Arial, sans-serif" font-size="17" font-weight="400" fill="#9DB0B2" text-anchor="start">Gratis en iPhone, Android y la web.</text><polyline points="400,250 420,250" fill="none" stroke="#F5C842" stroke-width="3" stroke-linecap="round" stroke-linejoin="round"/><path d="M411 243 L422 250 L411 257" fill="none" stroke="#F5C842" stroke-width="3" stroke-linecap="round" stroke-linejoin="round"/><rect x="428" y="100" width="344" height="300" rx="18" fill="#172226" stroke="#26353A" stroke-width="2"/><text x="456" y="360" font-family="-apple-system, BlinkMacSystemFont, 'Segoe UI', Roboto, Helvetica, Arial, sans-serif" font-size="23" font-weight="700" fill="#E4ECEC" text-anchor="start">Suscríbete a tu enlace</text><text x="456" y="386" font-family="-apple-system, BlinkMacSystemFont, 'Segoe UI', Roboto, Helvetica, Arial, sans-serif" font-size="17" font-weight="400" fill="#9DB0B2" text-anchor="start">canarito.py setup te lo da.</text><polyline points="780,250 800,250" fill="none" stroke="#F5C842" stroke-width="3" stroke-linecap="round" stroke-linejoin="round"/><path d="M791 243 L802 250 L791 257" fill="none" stroke="#F5C842" stroke-width="3" stroke-linecap="round" stroke-linejoin="round"/><rect x="808" y="100" width="344" height="300" rx="18" fill="#172226" stroke="#26353A" stroke-width="2"/><text x="836" y="360" font-family="-apple-system, BlinkMacSystemFont, 'Segoe UI', Roboto, Helvetica, Arial, sans-serif" font-size="23" font-weight="700" fill="#E4ECEC" text-anchor="start">Y listo</text><text x="836" y="386" font-family="-apple-system, BlinkMacSystemFont, 'Segoe UI', Roboto, Helvetica, Arial, sans-serif" font-size="17" font-weight="400" fill="#9DB0B2" text-anchor="start">El próximo aviso suena ahí.</text><g transform="translate(92 190) scale(1)" fill="none" stroke="#E4ECEC" stroke-width="2.6" stroke-linecap="round" stroke-linejoin="round"><rect x="11" y="3" width="18" height="34" rx="4"/><path d="M17 32h6"/></g><g transform="translate(158 190) scale(1)" fill="none" stroke="#E4ECEC" stroke-width="2.6" stroke-linecap="round" stroke-linejoin="round"><rect x="7" y="8" width="26" height="18" rx="2"/><path d="M3 32h34"/></g><g transform="translate(224 190) scale(1)" fill="none" stroke="#E4ECEC" stroke-width="2.6" stroke-linecap="round" stroke-linejoin="round"><rect x="4" y="6" width="32" height="22" rx="2"/><path d="M15 35h10M20 28v7"/></g><g transform="translate(290 190) scale(1)" fill="none" stroke="#E4ECEC" stroke-width="2.6" stroke-linecap="round" stroke-linejoin="round"><rect x="11" y="10" width="18" height="20" rx="5"/><path d="M15 10l1-6h8l1 6M15 30l1 6h8l1-6"/></g><rect x="456" y="176" width="296" height="64" rx="12" fill="#0E1517" stroke="#F5C842" stroke-width="2"/><text x="476" y="216" font-family="-apple-system, BlinkMacSystemFont, 'Segoe UI', Roboto, Helvetica, Arial, sans-serif" font-size="21" font-weight="400" fill="#E4ECEC" text-anchor="start">ntfy.sh/canarito-3f9a…</text><text x="476" y="282" font-family="-apple-system, BlinkMacSystemFont, 'Segoe UI', Roboto, Helvetica, Arial, sans-serif" font-size="17" font-weight="400" fill="#9DB0B2" text-anchor="start">El mismo enlace en cada aparato,</text><text x="476" y="304" font-family="-apple-system, BlinkMacSystemFont, 'Segoe UI', Roboto, Helvetica, Arial, sans-serif" font-size="17" font-weight="400" fill="#9DB0B2" text-anchor="start">y compártelo con tu familia.</text><rect x="830" y="150" width="300" height="120" rx="20" fill="#24343A" stroke="#24343A" stroke-width="2"/><rect x="846" y="168" width="44" height="44" rx="11" fill="#317F6F"/><g transform="translate(848 170) scale(1)" fill="none" stroke="#E4ECEC" stroke-width="2.6" stroke-linecap="round" stroke-linejoin="round"><path d="M10 27V19a10 10 0 0 1 20 0v8l2.5 3.5h-25zM16.5 34.5a3.5 3.5 0 0 0 7 0"/></g><text x="904" y="186" font-family="-apple-system, BlinkMacSystemFont, 'Segoe UI', Roboto, Helvetica, Arial, sans-serif" font-size="18" font-weight="700" fill="#E4ECEC" text-anchor="start">Alerta de sismo</text><text x="1114" y="186" font-family="-apple-system, BlinkMacSystemFont, 'Segoe UI', Roboto, Helvetica, Arial, sans-serif" font-size="15" font-weight="400" fill="#9DB0B2" text-anchor="end">ahora</text><text x="904" y="214" font-family="-apple-system, BlinkMacSystemFont, 'Segoe UI', Roboto, Helvetica, Arial, sans-serif" font-size="17" font-weight="400" fill="#E4ECEC" text-anchor="start">Sismo M4.5 cerca de su zona.</text><text x="904" y="238" font-family="-apple-system, BlinkMacSystemFont, 'Segoe UI', Roboto, Helvetica, Arial, sans-serif" font-size="17" font-weight="400" fill="#E4ECEC" text-anchor="start">Protéjase ahora.</text></g></svg>
